<?xml version="1.0" encoding="utf-8"?>
<svg viewBox="0 0 1000 1000" xmlns="http://www.w3.org/2000/svg" xmlns:xlink="http://www.w3.org/1999/xlink">
  <defs>
    <linearGradient gradientUnits="userSpaceOnUse" x1="424.64" y1="-54.551" x2="424.64" y2="527.241" id="gradient-0" gradientTransform="matrix(-0.54259, -0.839999, 0.255991, -0.165355, 653.424046, 868.94496)">
      <stop offset="0" style=""/>
      <stop offset="1" style="stop-color: rgb(250, 24, 190);"/>
    </linearGradient>
    <path id="path-0" style="fill: none;" d="M 410.945 513.277 C 434.043 513.277 443.582 511.546 452.508 511.546 C 461.931 507.539 467.685 505.484 475.887 505.484 C 483.877 505.484 493.224 493.362 497.534 493.362 C 502.804 488.018 515.513 484.453 517.45 478.642 C 519.98 476.044 538.398 451.298 539.963 446.604 C 543.356 437.361 552.171 426.602 557.281 421.493 C 564.258 416.692 572.867 407.459 572.867 400.711 C 575.465 394.587 583.889 374.418 586.721 373.003 C 596.032 362.5 604.714 348.821 615.296 345.294 C 629.74 338.072 641.642 328.843 651.663 321.049 C 668.638 311.263 680.057 304.772 695.824 300.268 C 710.38 299.402 719.603 289.877 729.593 289.877 C 751.306 286.691 774.234 281.554 793.67 286.413 C 804.366 286.413 815.227 290.265 821.378 293.341 C 832.748 295.072 841.288 297.67 850.818 297.67 L 853.416 297.67 C 859.878 297.67 868.265 301.999 871.6 301.999"/>
  </defs>
  <circle style="stroke: rgb(0, 0, 0); fill: rgba(0, 238, 255, 0.44); transform-origin: 510.5px 410.5px;" cx="510.5" cy="410.5" r="169"/>
  <g transform="matrix(0.039066001772880554, 0, 0, -0.039066001772880554, 49.98841550929001, 768.9707756187138)" fill="#000000" stroke="none">
    <path d="M2280 9441 c-674 -3 -1233 -10 -1243 -15 -10 -4 -21 -16 -25 -25 -4 -9 -5 -522 -2 -1141 3 -619 6 -2206 8 -3527 1 -1451 6 -2412 11 -2427 6 -13 16 -28 23 -32 9 -6 6 -10 -10 -14 -18 -4 -79 -106 -293 -490 -149 -267 -293 -528 -321 -580 -28 -52 -123 -220 -210 -375 -88 -154 -174 -304 -190 -333 -29 -52 -30 -56 -26 -160 5 -125 22 -169 77 -200 20 -11 46 -34 58 -50 14 -19 42 -37 75 -49 51 -17 252 -18 6178 -18 l6125 0 74 22 c77 23 88 30 133 78 55 58 71 102 76 206 3 80 1 104 -15 140 -24 53 -127 227 -234 394 -87 136 -569 917 -755 1222 -121 198 -123 203 -109 230 13 24 15 469 15 3433 0 2335 3 3441 11 3519 12 130 8 154 -25 177 -22 14 -405 16 -4103 18 -2243 2 -4629 0 -5303 -3z m8930 -3531 l0 -2740 -4880 0 -4880 0 0 2740 0 2740 4880 0 4880 0 0 -2740z"/>
  </g>
  <text style="white-space: pre; fill: rgb(51, 51, 51); font-family: Arial, sans-serif; font-size: 60.6px;" x="130" y="504.551" transform="matrix(1, 0, 0, 1, 2.2737367544323206e-13, 0)">私の名前</text>
  <g transform="matrix(1, 0, 0, 1, 300.0000044703486, 199.8040190905931)">
    <path d="M484.1,454.796l-110.5-110.6c29.8-36.3,47.6-82.8,47.6-133.4c0-116.3-94.3-210.6-210.6-210.6S0,94.496,0,210.796 s94.3,210.6,210.6,210.6c50.8,0,97.4-18,133.8-48l110.5,110.5c12.9,11.8,25,4.2,29.2,0C492.5,475.596,492.5,463.096,484.1,454.796z M41.1,210.796c0-93.6,75.9-169.5,169.5-169.5s169.6,75.9,169.6,169.5s-75.9,169.5-169.5,169.5S41.1,304.396,41.1,210.796z" style=""/>
  </g>
  <path style="stroke: rgb(0, 0, 0); fill: rgba(8, 255, 136, 0.47); transform-origin: 415.61px 504.561px;" d="M 487.566 431.012 L 487.687 578.555 C 407.075 568.499 347.927 497.316 343.532 430.568 L 487.566 431.012 Z"/>
  <text style="fill: url('#gradient-0'); font-family: Arial, sans-serif; font-size: 60px; white-space: pre;" transform="matrix(1, 0, 0, 1, 2.2737367544323206e-13, 0)"><textPath xlink:href="#path-0">はジョニーです はジョニーです はジョニ</textPath></text>
</svg>